<?xml version="1.0" standalone="no"?>
<!DOCTYPE svg PUBLIC "-//W3C//DTD SVG 20010904//EN"
 "http://www.w3.org/TR/2001/REC-SVG-20010904/DTD/svg10.dtd">
<svg version="1.0" xmlns="http://www.w3.org/2000/svg"
 width="168.000000pt" height="48.000000pt" viewBox="0 0 168.000000 48.000000"
 preserveAspectRatio="xMidYMid meet">

<g transform="translate(0.000000,48.000000) scale(0.100000,-0.100000)"
fill="#000000" stroke="none">
<path d="M987 414 c-4 -4 -7 -15 -7 -25 0 -9 -16 -68 -35 -130 -39 -123 -38
-152 3 -147 29 3 43 27 15 24 -23 -1 -20 21 18 137 15 48 30 99 31 114 3 25
-11 40 -25 27z"/>
<path d="M96 364 c-39 -40 -39 -98 0 -150 32 -42 29 -79 -6 -79 -20 0 -26 6
-28 28 -3 23 -6 26 -18 16 -33 -27 -8 -69 41 -69 66 0 84 62 38 131 -23 35
-25 45 -17 77 10 42 47 67 76 51 24 -13 23 -30 -3 -63 -16 -20 -19 -30 -11
-38 20 -20 52 20 52 62 0 46 -14 60 -61 60 -26 0 -44 -7 -63 -26z"/>
<path d="M663 383 c-7 -3 -13 -14 -13 -25 0 -14 6 -19 22 -16 13 2 24 10 26
19 3 18 -15 29 -35 22z"/>
<path d="M1256 357 c-17 -18 -49 -67 -71 -107 -22 -41 -53 -90 -69 -108 l-30
-34 25 4 c18 2 35 22 71 83 83 143 97 165 107 165 5 0 1 -26 -10 -57 -26 -74
-31 -186 -8 -191 10 -2 32 28 69 95 58 106 90 156 96 150 2 -2 -7 -35 -21 -74
-46 -133 -42 -180 16 -171 27 4 38 27 12 24 -29 -2 -27 51 6 150 32 96 29 118
-14 90 -33 -22 -73 -78 -109 -154 -16 -34 -33 -62 -38 -62 -16 0 10 117 47
213 13 32 -44 21 -79 -16z"/>
<path d="M293 285 c-41 -17 -73 -69 -73 -116 0 -43 15 -59 56 -59 77 0 140
133 82 174 -27 19 -25 19 -65 1z m51 -21 c17 -44 -44 -154 -77 -141 -21 8 -22
37 -2 84 27 65 65 93 79 57z"/>
<path d="M494 286 c-46 -20 -74 -62 -74 -110 0 -23 5 -47 12 -54 15 -15 63
-16 89 -2 30 16 22 30 -10 17 -38 -14 -61 -3 -61 28 0 44 48 115 77 115 15 0
18 -36 3 -45 -17 -10 -11 -25 9 -25 34 0 43 63 12 80 -23 12 -19 12 -57 -4z"/>
<path d="M634 294 c-7 -3 -10 -14 -7 -24 3 -11 -5 -45 -17 -75 -24 -59 -22
-85 8 -85 26 0 34 11 17 24 -12 9 -11 20 11 74 31 75 27 102 -12 86z"/>
<path d="M779 282 c-46 -23 -85 -99 -72 -139 12 -36 47 -42 78 -13 l23 22 7
-22 c5 -16 13 -20 33 -18 14 2 27 9 30 16 2 7 -2 10 -12 6 -28 -11 -28 22 -2
87 25 63 26 89 1 69 -10 -8 -20 -8 -33 -1 -14 7 -28 6 -53 -7z m54 -37 c-3
-35 -52 -109 -76 -113 -13 -3 -17 4 -17 28 0 35 13 64 43 98 29 31 53 25 50
-13z"/>
<path d="M1583 288 c-39 -10 -73 -56 -80 -107 -6 -46 15 -71 61 -71 35 0 76
23 63 36 -4 4 -13 2 -19 -4 -17 -17 -65 -15 -72 4 -8 21 1 34 25 34 28 0 75
26 83 45 19 51 -7 78 -61 63z m35 -35 c3 -22 -39 -63 -64 -63 -17 0 -17 5 -3
33 29 56 61 70 67 30z"/>
</g>
</svg>
